<svg width="698" height="571" viewBox="0 0 698 571" fill="none" xmlns="http://www.w3.org/2000/svg">
<g id="PolkaMusicSVG 1" clip-path="url(#clip0)">
<g id="Circle">
<path id="M8" d="M503.04 283.82L471.72 283.11C471.72 283.11 457.79 282.6 463.48 293.58L468.48 301.51L467.87 305.99C467.87 305.99 462.37 314.22 456.07 313.72H447.91C447.91 313.72 439.91 311.07 439.47 305.78C439.282 302.517 440.217 299.288 442.12 296.63C442.12 296.63 443.85 289.41 438.12 287.99L407.61 292.56C407.61 292.56 399.07 271.11 389.92 264.5C389.92 264.5 414.17 236.89 413.26 229.72C412.35 222.55 406.7 225.29 406.7 225.29L400.9 224.38C400.9 224.38 392.97 220.87 395.26 210.65C397.55 200.43 409.26 197.53 410.82 198.44C411.703 198.984 412.685 199.348 413.71 199.51L418.71 205.92L421.76 209.92C421.76 209.92 428.47 212.51 431.22 206.56C433.97 200.61 440.93 187.03 442.56 182.76C442.56 182.76 463.46 199.16 473.56 214.37C476.56 218.95 478.66 223.43 478.87 227.31C478.87 227.31 478.26 231.78 474.29 232.08C470.32 232.38 465.24 232.19 465.24 232.19C465.24 232.19 458.74 236.05 459.75 241.75L459.45 246.83L461.38 251C461.38 251 464.84 257.41 471.96 258C473.906 258.267 475.887 257.955 477.656 257.103C479.426 256.251 480.905 254.897 481.91 253.21L485.67 248.33C485.67 248.33 490.67 246.19 492.99 250.87C495.31 255.55 504.91 277.51 503.04 283.82Z" fill="white" stroke="black" stroke-miterlimit="10"/>
<path id="M7" d="M520.53 376.16C520.53 376.16 515.96 386.22 509.7 388.05C503.44 389.88 496.91 380.71 496.91 380.71C496.91 380.71 494.01 378.58 492.03 379.19C490.05 379.8 474.64 403.59 474.64 403.59C474.64 403.59 456.49 387.78 451.71 385.09C446.93 382.4 448.86 377.26 448.86 377.26C448.86 377.26 454.76 371.61 459.03 368.15C463.3 364.69 455.67 355.39 455.67 355.39C450.99 348.07 442.67 350.51 438.99 350.71C435.31 350.91 433.3 357.22 432.08 363.93C430.86 370.64 423.74 368.81 423.74 368.81L419.91 365.78L414.41 359.28L400.18 345.44L403.13 339.34C405.26 331.34 396.13 330.55 396.13 330.55L393.99 331L390.49 331.92L388.04 332.38H386.04L382.84 331.46L380.55 329.46L378.87 326.1L376.87 319.7L377.78 315.12L379.78 309.48L384.51 304.59C384.51 304.59 390.76 301.39 390.61 302.59C390.46 303.79 401.91 308.71 401.91 308.71C412.58 311.46 407.7 292.54 407.7 292.54L438.21 287.97C443.91 289.39 442.21 296.61 442.21 296.61C440.307 299.267 439.372 302.497 439.56 305.76C439.91 311.07 447.91 313.71 447.91 313.71H456.05C462.35 314.21 467.85 305.98 467.85 305.98L468.46 301.5L463.46 293.57C457.77 282.57 471.7 283.1 471.7 283.1L503.02 283.81C503.02 283.81 505.41 307.81 503.91 327.96C503.611 332.728 502.943 337.466 501.91 342.13C497.03 362.57 501.76 360.59 501.76 360.59C505.864 361.038 509.995 361.189 514.12 361.04C522.21 360.9 520.53 376.16 520.53 376.16Z" fill="white" stroke="black" stroke-miterlimit="10"/>
<path id="M6" d="M474.62 403.61C472.23 413.18 452.42 428.43 441.49 436.7C438.71 438.8 436.49 440.45 435.31 441.44C429.42 446.33 425.14 440.44 425.14 440.44C426.77 424.98 418.43 424.57 418.43 424.57C413.298 423.61 407.992 424.629 403.58 427.42C396.47 432.1 399.31 443.49 399.31 443.49L405.62 448.57C412.53 456.1 403.38 459.35 403.38 459.35C403.38 459.35 370.03 470.78 367.15 469.15C367.07 469.113 367.007 469.047 366.974 468.965C366.94 468.884 366.939 468.793 366.97 468.71C367.97 465.25 362.27 443.51 358.76 437.79C355.25 432.07 350.6 435.28 350.6 435.28L346.86 438.48L341.37 441.84C341.37 441.84 338.7 442.45 333.75 439.7C328.8 436.95 327.49 429.48 327.49 429.48L328.25 420.79C328.25 420.79 333.82 411.96 343.79 414.2C353.76 416.44 348.91 404.02 348.91 404.02C348.91 404.02 344.04 375.73 344.55 374.53H344.64C345.64 375.75 363.76 372.29 363.76 372.29C363.76 372.29 370.76 370.05 370.76 379.72C370.76 389.39 376.25 392.02 376.25 392.02L384.59 392.22C391.91 392.73 398.42 381.34 398.42 381.34C398.42 381.34 401.77 372.7 393.64 368.83C385.51 364.96 387.94 360.39 387.94 360.39L400.15 345.44L414.38 359.28L419.88 365.78L423.74 368.83C423.74 368.83 430.86 370.66 432.08 363.95C433.3 357.24 435.33 350.95 438.99 350.73C442.65 350.51 450.99 348.09 455.67 355.41C455.67 355.41 463.3 364.72 459.03 368.17C454.76 371.62 448.86 377.28 448.86 377.28C448.86 377.28 446.93 382.41 451.71 385.11C456.49 387.81 474.62 403.61 474.62 403.61Z" fill="white" stroke="black" stroke-miterlimit="10"/>
<path id="M5" d="M345.62 483.55C348.67 490.05 341.55 495.55 341.55 495.55C339.221 496.818 336.624 497.516 333.973 497.586C331.322 497.655 328.692 497.095 326.3 495.95C317.75 492.09 318.36 485.58 318.36 485.58C319.383 482.649 320.749 479.85 322.43 477.24C324.67 474.24 321.01 469.11 321.01 469.11C306.16 468.71 294.77 460.56 287.91 459.71C285.19 459.4 279.56 456.61 273.75 453.37H273.67C265.19 448.62 256.33 442.89 255.43 442.31H255.38L258.23 438.66L261.08 435L264.33 430.72L266.33 427.88L268.16 424.62L268.77 421.37L268.16 417.91L263.68 415.67L256.38 413.84L252.31 410.18L251.91 405.5L252.52 400.42L257.19 393.1L265.74 389.64C266.494 389.49 267.263 389.433 268.03 389.47H268.42C268.755 389.493 269.089 389.533 269.42 389.59C269.62 389.59 269.82 389.65 270.03 389.7H270.11C270.25 389.7 270.4 389.77 270.54 389.82C270.706 389.859 270.87 389.91 271.03 389.97C271.503 390.126 271.962 390.323 272.4 390.56C272.63 390.69 272.86 390.82 273.09 390.97C273.32 391.12 273.54 391.29 273.76 391.46C274.352 391.933 274.88 392.481 275.33 393.09C275.43 393.22 275.53 393.35 275.62 393.49C276.358 394.612 276.921 395.839 277.29 397.13C277.567 398.122 277.96 399.079 278.46 399.98C278.611 400.267 278.785 400.541 278.98 400.8C279.1 400.96 279.21 401.11 279.32 401.24C279.43 401.37 279.55 401.5 279.67 401.61C279.884 401.826 280.118 402.02 280.37 402.19C280.549 402.315 280.74 402.423 280.94 402.51C281.127 402.596 281.321 402.666 281.52 402.72L282.11 402.84H282.3C282.872 402.871 283.445 402.796 283.99 402.62L284.3 402.51L284.6 402.39C284.79 402.314 284.974 402.224 285.15 402.12C285.429 401.975 285.697 401.807 285.95 401.62L286.24 401.39L298.33 387.23C298.316 387.316 298.316 387.404 298.33 387.49C298.342 387.551 298.366 387.608 298.4 387.66C298.481 387.825 298.582 387.979 298.7 388.12L298.98 388.42C299.251 388.675 299.538 388.912 299.84 389.13L300.35 389.49C300.53 389.62 300.71 389.74 300.91 389.86C301.11 389.98 301.46 390.2 301.74 390.37L303.07 391.1C303.37 391.26 303.67 391.42 303.97 391.56C304.97 392.09 305.97 392.56 306.69 392.86L307.23 393.11L307.62 393.28L307.83 393.37C309.874 393.23 311.923 393.194 313.97 393.26C317.1 393.37 321.22 388.26 321.22 388.26C321.22 388.26 322.17 386.12 322.02 379.6C321.87 373.08 327.24 373.76 327.24 373.76L332.01 374.07L344.45 374.54C343.94 375.74 348.81 404.03 348.81 404.03C348.81 404.03 353.69 416.44 343.73 414.2C333.77 411.96 328.19 420.79 328.19 420.79L327.43 429.48C327.43 429.48 328.73 436.95 333.69 439.7C338.65 442.45 341.31 441.84 341.31 441.84L346.8 438.48L350.54 435.28C350.54 435.28 355.19 432.07 358.7 437.79C362.21 443.51 367.93 465.25 366.91 468.71C366.879 468.793 366.88 468.884 366.914 468.965C366.947 469.047 367.01 469.113 367.09 469.15V470.08L346.55 470.74C339.52 471.95 345.62 483.55 345.62 483.55Z" fill="white" stroke="black" stroke-miterlimit="10"/>
<path id="M4" d="M298.3 372.34C292.66 378.9 298.3 387.22 298.3 387.22L286.23 401.36C286.132 401.444 286.029 401.521 285.92 401.59C285.667 401.777 285.399 401.945 285.12 402.09C284.944 402.194 284.76 402.284 284.57 402.36L284.27 402.48L283.96 402.59C283.415 402.766 282.842 402.841 282.27 402.81H282.08L281.49 402.69C281.291 402.636 281.097 402.566 280.91 402.48C280.714 402.385 280.523 402.278 280.34 402.16C280.088 401.99 279.854 401.796 279.64 401.58C279.52 401.47 279.41 401.34 279.29 401.21C279.17 401.08 279.07 400.93 278.95 400.77C278.83 400.61 278.6 400.25 278.43 399.95C277.945 399.044 277.559 398.089 277.28 397.1C276.913 395.805 276.343 394.576 275.59 393.46C275.5 393.32 275.4 393.19 275.3 393.06C274.85 392.451 274.322 391.903 273.73 391.43C273.521 391.248 273.297 391.084 273.06 390.94C272.839 390.789 272.609 390.652 272.37 390.53C271.932 390.293 271.473 390.096 271 389.94C270.84 389.88 270.676 389.829 270.51 389.79C270.37 389.79 270.22 389.71 270.08 389.67H270C269.79 389.62 269.59 389.59 269.39 389.56C269.059 389.503 268.725 389.463 268.39 389.44H268C267.233 389.403 266.464 389.46 265.71 389.61L257.16 393.07L252.49 400.39L251.88 405.47L252.28 410.15L256.35 413.81L263.65 415.64L268.13 417.88L268.74 421.34L268.13 424.59L266.3 427.85L264.3 430.69L261.05 434.97L258.2 438.63L255.35 442.29H255.22C253.513 441.696 251.928 440.798 250.54 439.64L250.37 439.52C238.11 430.25 215.05 402.02 215.05 402.02L212.69 398.58L212.08 395.46L212.19 393.51L213.95 391.15L215.7 389.74L221.12 390.04L226.12 389.36L228.6 387.83C228.6 387.83 233.17 387.22 231.34 375.63C229.51 364.04 216.7 363.27 216.7 363.27C214.939 363.607 213.268 364.31 211.796 365.335C210.325 366.361 209.086 367.684 208.16 369.22C205.11 374.41 200.99 373.34 200.99 373.34C192.9 368.46 186.19 333.73 186.19 333.73L190.37 334.21L196.37 334.97L201.93 335.66L206.93 336.42L211.88 337.11L216 338.25L221.57 338.94L226.91 339.02L229.35 338.25L231.91 336.71L233.13 334.35L232.91 330.71L231.08 327.71L228.08 324.21L225.8 318.79L226.48 314.21L231.29 309.21H231.4L231.61 309.12L231.91 308.99C232.019 308.934 232.133 308.887 232.25 308.85L233.01 308.55L233.6 308.34C233.822 308.251 234.049 308.175 234.28 308.11L235.84 307.64C236.4 307.48 237.01 307.33 237.66 307.19C238.31 307.05 238.98 306.92 239.66 306.8C240.34 306.68 241.12 306.6 241.89 306.53C241.986 306.52 242.084 306.52 242.18 306.53C242.645 306.501 243.111 306.528 243.57 306.61L244.03 306.69H244.11C244.292 306.727 244.473 306.774 244.65 306.83L245.16 307L245.6 307.17L246.03 307.36L246.45 307.56L246.97 307.84C247.31 308.04 247.65 308.25 247.97 308.47L248.45 308.81C248.916 309.149 249.363 309.513 249.79 309.9C250.21 310.27 250.61 310.65 250.97 311.02C251.33 311.39 251.73 311.82 252.05 312.18L252.33 312.51C252.6 312.83 252.83 313.12 253.01 313.36C253.36 313.81 253.55 314.08 253.55 314.08L252.41 321.78C251.58 325.89 252.24 328.24 253.49 329.54C253.607 329.667 253.734 329.784 253.87 329.89C253.996 330.008 254.138 330.109 254.29 330.19C254.504 330.33 254.732 330.447 254.97 330.54C255.117 330.604 255.267 330.661 255.42 330.71L255.68 330.78C255.838 330.826 255.998 330.863 256.16 330.89C256.285 330.92 256.412 330.941 256.54 330.95H256.9H257.07H257.58H257.98C258.19 330.95 258.4 330.95 258.61 330.95C258.82 330.95 259.1 330.9 259.32 330.86L260.07 330.73H260.14L260.6 330.62L260.83 330.56H260.95H261.04H261.11L282.91 324.15C290.54 348.71 299.85 356.79 303.51 360.3C307.17 363.81 304.42 368.69 304.42 368.69L298.3 372.34Z" fill="white" stroke="black" stroke-miterlimit="10"/>
<path id="M3" d="M314.75 300.8C314.6 312.09 305.75 314.68 305.75 314.68C305.75 314.68 295.84 315.29 294.92 312.55C294 309.81 287.6 307.36 287.6 307.36C287.6 307.36 285.47 307.51 282.87 309.95C280.27 312.39 282.87 324.14 282.87 324.14L261.16 330.39H261.09H261H260.88L260.65 330.45L260.19 330.56H260.12L259.37 330.69C259.15 330.69 258.91 330.76 258.66 330.78H258.03H257.63H257.12H256.91H256.55C256.422 330.771 256.295 330.751 256.17 330.72C256.008 330.693 255.848 330.656 255.69 330.61L255.43 330.54C255.277 330.491 255.127 330.434 254.98 330.37C254.742 330.277 254.514 330.16 254.3 330.02C254.148 329.939 254.006 329.838 253.88 329.72C253.744 329.614 253.617 329.497 253.5 329.37C252.23 328.09 251.57 325.74 252.4 321.61L253.54 313.91C253.54 313.91 253.36 313.63 253.02 313.19L252.34 312.34L252.06 312.01C251.74 311.65 251.38 311.26 250.98 310.85C250.58 310.44 250.22 310.1 249.8 309.73C249.373 309.343 248.926 308.979 248.46 308.64L247.98 308.3C247.66 308.08 247.32 307.87 246.98 307.67L246.46 307.39L246.04 307.19L245.61 307L245.17 306.83L244.66 306.66C244.483 306.604 244.302 306.557 244.12 306.52H244.04C243.89 306.479 243.736 306.452 243.58 306.44C243.121 306.358 242.655 306.331 242.19 306.36C242.094 306.35 241.996 306.35 241.9 306.36V306.36C241.13 306.43 240.39 306.52 239.67 306.63C238.95 306.74 238.28 306.87 237.67 307.02C237.06 307.17 236.41 307.31 235.85 307.47C235.29 307.63 234.77 307.78 234.29 307.94C234.059 308.005 233.832 308.081 233.61 308.17L233.02 308.38L232.26 308.68C232.143 308.717 232.029 308.764 231.92 308.82L231.62 308.95L231.41 309.04H231.3H231.25L226.44 314.04L225.76 318.62L228.04 324.04L231.04 327.54L232.87 330.54L233.1 334.2L231.85 336.71L229.33 338.16L226.89 338.93L221.55 338.85L215.98 338.16L211.91 337.03L206.96 336.34L201.96 335.58L196.4 334.89L190.4 334.13L186.22 333.65C186.22 333.65 185.04 310.79 186.51 293.02C187.1 286.02 188.09 279.81 189.73 276.1C195.53 262.98 186.98 260.62 186.98 260.62C173.48 261.99 172.64 258.62 172.64 258.62C165.55 249.39 172.64 241.84 175.31 237.62C177.98 233.4 186.53 234.87 186.53 234.87C186.53 234.87 192.78 241.74 196.59 243.26C200.4 244.78 203.71 236.8 203.71 236.8L217.54 214.94C229.24 220.23 254.15 237.31 254.15 237.31C254.15 237.31 258.73 243.92 251.71 246.06C244.69 248.2 243.71 255.31 243.71 255.31C248.08 272.8 259.78 270.36 259.78 270.36C267.4 272.36 270.35 262.23 270.35 262.23C270.35 262.23 269.84 251.86 275.54 251.14C281.24 250.42 300.12 266.6 300.12 266.6L290.91 277.16C286.64 285.16 294.57 287.83 294.57 287.83H297.19L299.78 287.02L304.06 286.16L307.61 287.07C307.61 287.07 314.91 289.51 314.75 300.8Z" fill="white" stroke="black" stroke-miterlimit="10"/>
<path id="M2" d="M334.43 240.8L334.53 244.56L331.89 247.56L328.43 249.7L321.01 252.04L315.31 255.29L308.91 259.31L304.53 262.87L300.03 266.63C300.03 266.63 281.14 250.46 275.45 251.17C269.76 251.88 270.26 262.26 270.26 262.26C270.26 262.26 267.26 272.43 259.69 270.39C259.69 270.39 247.99 272.83 243.62 255.34C243.62 255.34 244.62 248.22 251.62 246.09C258.62 243.96 254.06 237.34 254.06 237.34C254.06 237.34 229.15 220.26 217.45 214.97C217.45 214.97 240.45 187.82 246.33 188.83C252.21 189.84 251.42 196.36 251.42 196.36C251.42 196.36 251.01 205.11 257.93 206.94C264.85 208.77 275.42 199.41 275.42 199.41C275.42 199.41 278.88 189.24 274 185.78C271.143 183.752 268.153 181.918 265.05 180.29C265.05 180.29 263.62 172.56 269.72 170.29C270.77 169.91 272.54 169.08 274.9 167.99C286.3 162.7 311.27 150.99 333.18 151.17L336.64 168.86C336.64 168.86 336.84 179.86 331.96 178.62C327.08 177.38 319.76 175.78 319.76 175.78L313.86 178.42L312.33 182.18L311.57 184.32V186.71L311.67 189.81V194.71C311.67 194.71 315.79 203.92 323.22 203.2C323.22 203.2 329.22 202.39 332.32 197.66C332.32 197.66 341.57 196.39 341.32 203.41L343.05 219.68C343.05 219.68 330.74 221.31 330.54 232.08L332.06 237.37L334.43 240.8Z" fill="white" stroke="black" stroke-miterlimit="10"/>
<path id="H" d="M401.91 308.71C401.91 308.71 390.47 303.83 390.62 302.61C390.77 301.39 384.52 304.61 384.52 304.61L379.79 309.5L377.79 315.14L376.88 319.72L378.88 326.12L380.56 329.48L382.85 331.48L386.05 332.4H388.05L390.5 331.94L394 331.02L396.14 330.57C396.14 330.57 405.29 331.33 403.14 339.36L400.19 345.46L387.91 360.39C387.91 360.39 385.47 364.97 393.61 368.83C401.75 372.69 398.39 381.34 398.39 381.34C398.39 381.34 391.91 392.71 384.57 392.22L376.23 392.02C376.23 392.02 370.74 389.38 370.74 379.72C370.74 370.06 363.74 372.29 363.74 372.29C363.74 372.29 345.64 375.75 344.62 374.53C344.58 374.483 344.55 374.483 344.53 374.53L332.09 374.06L327.32 373.75C327.32 373.75 321.94 373.07 322.1 379.59C322.26 386.11 321.3 388.25 321.3 388.25C321.3 388.25 317.18 393.39 314.05 393.25C312.003 393.184 309.954 393.22 307.91 393.36V393.36L307.7 393.27L307.31 393.1L306.77 392.85C306.05 392.53 305.08 392.08 304.05 391.55C303.75 391.41 303.45 391.25 303.15 391.09L301.82 390.36C301.54 390.19 301.25 390.02 300.99 389.85C300.73 389.68 300.61 389.61 300.43 389.48L299.92 389.12C299.618 388.902 299.331 388.665 299.06 388.41L298.78 388.11C298.662 387.969 298.561 387.815 298.48 387.65C298.451 387.596 298.427 387.539 298.41 387.48C298.396 387.394 298.396 387.306 298.41 387.22V387.22C298.41 387.22 292.73 378.9 298.41 372.34L304.51 368.68C304.51 368.68 307.26 363.8 303.6 360.29C299.94 356.78 290.6 348.7 283 324.14C283 324.14 280.41 312.39 283 309.95C285.59 307.51 287.73 307.36 287.73 307.36C287.73 307.36 294.14 309.8 295.05 312.55C295.96 315.3 305.75 314.71 305.75 314.71C305.75 314.71 314.6 312.12 314.75 300.83C314.9 289.54 307.58 287.1 307.58 287.1L304.03 286.19L299.75 287.05L297.16 287.86H294.54C294.54 287.86 286.61 285.19 290.88 277.19L300.03 266.66L304.53 262.9L308.91 259.31L315.31 255.24L321.01 251.99L328.43 249.65L331.91 247.51L334.55 244.51L334.45 240.75L332.11 237.29L330.59 232C330.79 221.23 343.1 219.6 343.1 219.6C343.1 219.6 358.05 220.31 359.47 230.48L359.06 234.55L356.83 238.82L355.83 242.68C355.83 242.68 354.61 248.17 366.83 250.61C379.05 253.05 390.02 264.45 390.02 264.45C399.17 271.06 407.71 292.51 407.71 292.51C407.71 292.51 412.53 311.48 401.91 308.71Z" fill="white" stroke="black" stroke-miterlimit="10"/>
<path id="M1" d="M442.64 182.71C441.01 186.98 434.04 200.56 431.3 206.51C428.56 212.46 421.84 209.87 421.84 209.87L418.79 205.87L413.79 199.46C412.765 199.298 411.783 198.934 410.9 198.39C409.37 197.48 397.62 200.39 395.34 210.6C393.06 220.81 400.91 224.38 400.91 224.38L406.71 225.29C406.71 225.29 412.35 222.55 413.27 229.72C414.19 236.89 389.93 264.5 389.93 264.5C389.93 264.5 378.93 253.11 366.74 250.66C354.55 248.21 355.74 242.73 355.74 242.73L356.74 238.87L358.97 234.6L359.38 230.53C357.96 220.36 343.01 219.65 343.01 219.65L341.28 203.38C341.53 196.38 332.28 197.63 332.28 197.63C329.18 202.36 323.18 203.17 323.18 203.17C315.75 203.89 311.63 194.68 311.63 194.68V189.85L311.53 186.75V184.36L312.29 182.22L313.82 178.46L319.72 175.82C319.72 175.82 327.04 177.44 331.92 178.66C336.8 179.88 336.6 168.9 336.6 168.9L333.21 151.21C343.427 151.048 353.645 151.489 363.81 152.53C367.23 152.88 370.81 153.32 374.3 153.88C380.848 154.849 387.308 156.337 393.62 158.33C393.62 158.33 401.55 155.89 399.11 149.78C396.67 143.67 402.57 137.58 402.57 137.58C402.57 137.58 415.99 133.51 422.91 143.28C429.83 153.05 423.52 155.48 423.52 155.48L418.03 160.56C418.03 160.56 413.96 165.85 420.47 168.9C425.89 171.45 436 179.23 439.2 181.74L440.2 182.53L442.64 182.71Z" fill="white" stroke="#231F20" stroke-miterlimit="10"/>
<path id="E1" d="M492.67 139.71L493.79 142.45L493.38 149.16L491.38 152.01L488.02 156.79L482.73 159.64L478.06 160.64L472.77 159.12C472.56 156.27 464.02 147.73 464.02 147.73C452.84 149.36 442.67 182.73 442.67 182.73L439.23 181.73C436.03 179.22 425.92 171.44 420.5 168.89C413.99 165.84 418.06 160.55 418.06 160.55L423.55 155.47C423.55 155.47 429.85 153.03 422.94 143.27C416.03 133.51 402.6 137.57 402.6 137.57C402.6 137.57 396.7 143.67 399.14 149.77C401.58 155.87 393.65 158.32 393.65 158.32C387.338 156.327 380.878 154.839 374.33 153.87L374.53 130.45L376.87 107.45C377.17 99.01 384.6 101.55 384.6 101.55L392.53 107.65L396.7 108.47L399.75 107.35L404.23 104.6L406.97 99.52L407.68 92.4L406.68 87.21L401.79 81.31L398.54 81.01C394.343 82.3936 389.848 82.6045 385.54 81.62C378.22 79.99 386.76 55.79 386.76 55.79C434.87 56.7 499.03 102.26 499.03 102.26L492.93 108.57L488.36 112.23L479.2 119.75L474.32 127.08L474.83 130.74L476.76 132.36L479.2 133.36L483.07 134.07L487.34 134.68L491.34 136.68L492.67 139.71Z" fill="white" stroke="black" stroke-miterlimit="10"/>
<path id="E2" d="M407.65 92.43L406.94 99.55L404.2 104.63L399.72 107.38L396.67 108.5L392.5 107.68L384.57 101.58C384.57 101.58 377.14 99.04 376.84 107.48L374.5 130.48L374.3 153.9C372.9 153.36 368.85 152.9 363.81 152.55C353.645 151.509 343.427 151.068 333.21 151.23C333.21 151.23 328.79 128.91 326.81 121.74C324.83 114.57 317.2 115.63 317.2 115.63L311.55 120.36C311.55 120.36 308.35 124.02 302.25 120.97C296.15 117.92 294.62 106.79 294.62 106.79L295.99 99.46L300.99 94.13H306.32C309.346 94.6883 312.406 95.0425 315.48 95.19C319.9 95.35 318.38 85.74 318.38 85.74C312.27 81.46 304.49 55.84 304.49 55.84C346.9 44.84 386.66 55.84 386.66 55.84C386.66 55.84 378.12 80.04 385.44 81.67C389.748 82.6545 394.243 82.4435 398.44 81.06L401.69 81.36L406.58 87.26L407.65 92.43Z" fill="white" stroke="black" stroke-miterlimit="10"/>
<path id="E3" d="M274.91 167.94C275.83 164.94 255.54 136.36 255.54 136.36C255.54 136.36 248.83 124.92 244.1 134.83C239.37 144.74 237.54 144.14 237.54 144.14L233.54 144.6L227.75 142.6C220.12 140.77 217.83 128.42 217.83 128.42L220.12 122.01C220.12 122.01 226.07 117.59 231.71 117.74C237.35 117.89 236.14 110.74 236.14 110.74L220.91 84.8C244.71 67.11 304.5 55.8 304.5 55.8C304.5 55.8 312.31 81.44 318.42 85.71C318.42 85.71 319.94 95.32 315.52 95.16C312.446 95.0125 309.386 94.6584 306.36 94.1H301.03L296.03 99.43L294.66 106.76C294.66 106.76 296.18 117.89 302.29 120.94C308.4 123.99 311.59 120.33 311.59 120.33L317.24 115.6C317.24 115.6 324.86 114.54 326.85 121.71C328.84 128.88 333.25 151.2 333.25 151.2C311.34 151.03 286.37 162.73 274.97 168.02C274.945 167.997 274.925 167.97 274.91 167.94Z" fill="white" stroke="black" stroke-miterlimit="10"/>
<path id="E4" d="M217.48 214.97L203.65 236.83C203.65 236.83 200.35 244.83 196.53 243.29C192.71 241.75 186.47 234.9 186.47 234.9C186.47 234.9 177.92 233.45 175.25 237.65C172.58 241.85 165.49 249.39 172.58 258.65C172.58 258.65 173.42 262.01 186.92 260.65C186.92 260.65 195.47 263.01 189.67 276.13C188.03 279.84 187.04 286.04 186.45 293.05L181.15 291.69L168.33 284.52L161.47 278.57L155.67 275.98L150.8 277.2L148.21 279.48L147.91 283.11L149.74 287.99L150.51 290.58L149.91 294.71L146.55 298.71L141.67 301.31L134.82 301.46L129.49 299.94L125.37 296.43L123.69 292.16L123.38 287.43C123.38 287.43 131.93 280.1 127.04 273.7C126.725 273.31 126.351 272.972 125.93 272.7L125.63 272.5C125.552 272.434 125.464 272.38 125.37 272.34C125.11 272.19 124.83 272.04 124.53 271.9L124.35 271.82C123.99 271.66 123.61 271.51 123.21 271.37C113.33 267.9 90.43 269.44 90.43 269.44C96.23 215.13 137.11 157.62 137.11 157.62C137.11 157.62 155.25 178.71 167.25 180.71C167.25 180.71 173.75 183.15 172.94 176.44C172.13 169.73 178.23 164.84 178.23 164.84C178.23 164.84 197.14 158.95 200.81 179.49C200.81 179.49 198.97 187.22 191.25 188.84C191.25 188.84 186.57 193.73 190.84 198.4C195.11 203.07 217.48 214.97 217.48 214.97Z" fill="white" stroke="black" stroke-miterlimit="10"/>
<path id="E5" d="M152.62 341.38L159.33 350.53L158.11 356.43C158.11 356.43 156.49 363.34 143.27 363.75C130.05 364.16 130.45 355 130.45 355L132.89 344C132.89 344 133.71 338.92 126.99 338.51C120.27 338.1 90.59 350.1 90.59 350.1C81.23 314.71 90.38 269.36 90.38 269.36C90.38 269.36 113.28 267.82 123.16 271.29C123.56 271.43 123.94 271.58 124.3 271.74L124.48 271.82C124.78 271.96 125.06 272.11 125.32 272.26L125.58 272.42L125.88 272.62L126.16 272.83C126.267 272.909 126.367 272.996 126.46 273.09C126.587 273.2 126.704 273.32 126.81 273.45L126.97 273.63C131.86 280.03 123.31 287.36 123.31 287.36L123.62 292.09L125.3 296.36L129.42 299.87L134.75 301.39L141.6 301.24L146.48 298.64L149.84 294.64L150.45 290.52L149.68 287.93L147.91 283.11L148.22 279.44L150.81 277.16L155.68 275.94L161.46 278.53L168.32 284.48L181.14 291.65L186.44 293.02C184.97 310.79 186.15 333.65 186.15 333.65C185.33 333.65 163.7 333.43 158.31 333.04C152.92 332.65 152.62 341.38 152.62 341.38Z" fill="white" stroke="black" stroke-miterlimit="10"/>
<path id="E6" d="M255.32 442.27L233.75 469.59L229.75 470.89L226.39 470.73L221.66 461.2L218.66 458.68L213.24 458.22L208.2 459.71L201.2 466.96L199.29 470.96L199.06 475.69L200.13 479.58L202.34 482.63L207.34 484.46L212.45 485.38L216.12 487.21L216.95 489.34C219.09 496.66 194.38 519.85 194.38 519.85C157.46 501.85 126.57 446.33 126.57 446.33C126.57 446.33 161.14 425.58 165.82 429.65C170.5 433.72 167.82 445.31 167.82 445.31C167.82 445.31 171.89 454.87 186.74 447.31C201.59 439.75 189.18 426.76 189.18 426.76L185.93 425.34L183.91 421.71L187.37 415.61L217.68 405.23C234.29 426.39 244.74 435.54 250.3 439.43L250.47 439.55C251.858 440.708 253.443 441.606 255.15 442.2H255.28L255.32 442.27Z" fill="white" stroke="black" stroke-miterlimit="10"/>
<path id="E7" d="M250.33 439.44C244.77 435.55 234.33 426.44 217.71 405.24L187.4 415.62L183.91 421.71L185.91 425.37L189.16 426.79C189.16 426.79 201.57 439.79 186.72 447.34C171.87 454.89 167.8 445.34 167.8 445.34C167.8 445.34 170.45 433.75 165.8 429.68C161.15 425.61 126.55 446.36 126.55 446.36C95.02 397.54 90.55 350.15 90.55 350.15C90.55 350.15 120.24 338.15 126.95 338.56C133.66 338.97 132.85 344.05 132.85 344.05L130.41 355.05C130.41 355.05 130.01 364.21 143.23 363.8C156.45 363.39 158.07 356.48 158.07 356.48L159.29 350.58L152.58 341.43C152.58 341.43 152.79 332.68 158.28 333.09C163.77 333.5 185.28 333.69 186.12 333.7C186.12 333.7 192.83 368.43 200.92 373.31C200.92 373.31 205.04 374.38 208.09 369.19C209.016 367.654 210.255 366.331 211.726 365.305C213.198 364.28 214.869 363.577 216.63 363.24C216.63 363.24 229.44 364 231.27 375.6C233.1 387.2 228.53 387.8 228.53 387.8L226.05 389.33L221.05 390.01L215.63 389.71L213.91 391.07L212.15 393.43L212.04 395.38L212.65 398.5L215.01 401.94C215.01 401.94 238.07 430.17 250.33 439.44Z" fill="white" stroke="black" stroke-miterlimit="10"/>
<path id="E8" d="M301.79 531.71C301.79 531.71 300.26 533.24 292.33 528.05C284.4 522.86 280.43 528.05 280.43 528.05L276.16 559.78C231.31 550.62 194.4 519.78 194.4 519.78C194.4 519.78 219.11 496.71 216.97 489.34L216.14 487.21L212.47 485.38L207.36 484.46L202.36 482.63L200.15 479.58L199.05 475.71L199.28 470.98L201.19 466.98L208.19 459.73L213.3 458.28L218.72 458.74L221.72 461.26L226.45 470.79L229.81 470.95L233.81 469.65L255.38 442.33H255.43C258.16 445.48 266.26 449.83 273.67 453.39H273.75C279.56 456.63 285.19 459.39 287.91 459.73L285.06 503.36L287.5 506.71L295.13 505.8C295.13 505.8 307.33 500.61 310.99 512.2C314.65 523.79 301.79 531.71 301.79 531.71Z" fill="white" stroke="black" stroke-miterlimit="10"/>
<path id="E9" d="M398.5 513.44C398.5 513.44 394.23 520.16 388.43 517.11C382.63 514.06 375.62 518.33 375.62 518.33C375.31 529 388.13 565.61 388.13 565.61C352.43 578.12 276.13 559.82 276.13 559.82L280.4 528.09C280.4 528.09 284.4 522.9 292.3 528.09C300.2 533.28 301.76 531.75 301.76 531.75C301.76 531.75 314.57 523.82 310.91 512.22C307.25 500.62 295.05 505.82 295.05 505.82L287.42 506.73L284.98 503.38L287.91 459.71C294.82 460.52 306.21 468.66 321.06 469.07C321.06 469.07 324.72 474.15 322.48 477.2C320.799 479.81 319.433 482.609 318.41 485.54C318.41 485.54 317.8 492.05 326.35 495.91C328.742 497.055 331.372 497.615 334.023 497.546C336.674 497.476 339.271 496.778 341.6 495.51C341.6 495.51 348.72 490.01 345.67 483.51C345.67 483.51 339.57 471.91 346.67 470.69L367.21 470.03V469.1L368.36 483.2L370.19 493.27L375.37 496.27L380.87 494.13L388.8 490.47L393.68 491.39C403.69 499.41 398.5 513.44 398.5 513.44Z" fill="white" stroke="black" stroke-miterlimit="10"/>
<path id="E10" d="M490.91 525.04C444.23 558.9 388.1 565.61 388.1 565.61C388.1 565.61 375.28 529 375.59 518.33C375.59 518.33 382.59 514.05 388.4 517.11C394.21 520.17 398.47 513.44 398.47 513.44C398.47 513.44 403.66 499.44 393.59 491.44L388.71 490.52L380.78 494.18L375.28 496.32L370.1 493.32L368.27 483.25L367.12 469.15C370 470.78 403.35 459.35 403.35 459.35C403.35 459.35 412.5 456.1 405.59 448.57L399.28 443.49C399.28 443.49 396.44 432.1 403.55 427.42C407.962 424.629 413.268 423.61 418.4 424.57C418.4 424.57 426.74 424.98 425.11 440.44C425.11 440.44 429.39 446.34 435.28 441.44C436.48 440.44 438.68 438.8 441.46 436.7L442.71 439.41L445.71 446.94L448.5 459.34C448.5 459.34 449.11 463.72 453.5 469.97C457.89 476.22 461.74 472.11 461.74 472.11L465.24 468.37L467.3 465.55L470.05 462.88L474.05 462.11L478.05 462.42L482.25 465.24L487.05 470.89L489.11 476.71L488.81 483.12C489.34 488.92 475.18 489.68 475.18 489.68C473.709 490 472.381 490.786 471.392 491.921C470.403 493.056 469.806 494.479 469.69 495.98C469.28 501.24 490.91 525.04 490.91 525.04Z" fill="white" stroke="black" stroke-miterlimit="10"/>
<path id="E11" d="M555.72 461.38C535.38 494.33 490.91 525.04 490.91 525.04C490.91 525.04 469.25 501.24 469.66 495.95C469.776 494.449 470.373 493.026 471.362 491.891C472.351 490.756 473.679 489.97 475.15 489.65C475.15 489.65 489.31 488.89 488.78 483.09L489.08 476.68L487.02 470.89L482.22 465.24L478.02 462.42L474.02 462.11L470.02 462.88L467.27 465.55L465.21 468.37L461.71 472.11C461.71 472.11 457.89 476.22 453.47 469.97C449.05 463.72 448.47 459.34 448.47 459.34L445.68 446.94L442.68 439.41L441.49 436.71C452.42 428.44 472.23 413.19 474.62 403.62L488.4 411.45L505.91 418.87L511.6 424.87L511.2 427.72C511.2 427.72 510.49 430.87 503.2 434.72C495.91 438.57 502.09 451.1 502.09 451.1L507.48 456.1L512.66 457.73L518.56 457.12C518.56 457.12 521.56 458.34 525.27 446.34C528.98 434.34 538.09 443.29 538.09 443.29L555.72 461.38Z" fill="white" stroke="black" stroke-miterlimit="10"/>
<path id="E12" d="M599.55 357.55C591.62 411.55 555.72 461.38 555.72 461.38L538.03 443.28C538.03 443.28 528.87 434.33 525.21 446.33C521.55 458.33 518.5 457.11 518.5 457.11L512.6 457.72L507.42 456.09L502.03 451.09C502.03 451.09 495.82 438.58 503.14 434.71C510.46 430.84 511.14 427.71 511.14 427.71L511.54 424.86L505.85 418.86L488.36 411.43L474.58 403.6C474.58 403.6 489.99 379.81 491.97 379.2C493.95 378.59 496.91 380.71 496.91 380.71C496.91 380.71 503.47 389.87 509.72 388.03C515.97 386.19 520.55 376.14 520.55 376.14C520.55 376.14 522.23 360.88 514.15 361.03C510.025 361.179 505.894 361.028 501.79 360.58C501.79 360.58 497.06 362.58 501.94 342.12C502.973 337.456 503.642 332.718 503.94 327.95L513.12 330.88C521.56 333.12 534.12 345.02 534.12 345.02L536.97 345.42L539.97 345.12L541.97 344.81C544.62 344.92 544.31 337.29 544.31 337.29L542.89 331.59L543.7 326.59L546.55 323.34L551.74 320.59H559.16L564.24 322.52L568.62 326.39C568.62 326.39 573.19 328.22 567.4 338.29C561.61 348.36 568.01 350.18 568.01 350.18L599.55 357.55Z" fill="white" stroke="black" stroke-miterlimit="10"/>
<path id="E13" d="M599.55 357.55L568.13 350.22C568.13 350.22 561.72 348.39 567.52 338.33C573.32 328.27 568.74 326.43 568.74 326.43L564.36 322.56L559.28 320.63H551.91L546.72 323.38L543.87 326.63L543.06 331.63L544.48 337.33C544.48 337.33 544.79 344.96 542.14 344.85L540.14 345.16L537.14 345.46L534.29 345.06C534.29 345.06 521.68 333.16 513.29 330.92L503.91 327.97C505.41 307.86 503.02 283.82 503.02 283.82C506.02 282.5 530.38 288.09 530.38 288.09L537.09 287.99L540.45 286.56C543.9 286.16 543.09 280.56 543.09 280.56L541.91 278.33L537.13 271.61V266.71L538.45 262.71L541.5 259.55L546.99 256.81L550.99 255.99L556.58 256.2L561.77 258.44C561.77 258.44 566.35 259.96 564.01 268.91C561.67 277.86 566.65 279.59 566.65 279.59L570.92 279.49L577.84 277.76L601.74 270.84C609.62 306.9 599.55 357.55 599.55 357.55Z" fill="white" stroke="black" stroke-miterlimit="10"/>
<path id="E14" d="M601.69 270.9L577.79 277.82L570.91 279.55L566.64 279.65C566.64 279.65 561.64 277.92 564 268.97C566.36 260.02 561.76 258.5 561.76 258.5L556.57 256.26L550.98 256.05L546.98 256.87L541.49 259.61L538.44 262.77L537.12 266.77V271.65L541.9 278.37L543.12 280.6C543.12 280.6 543.93 286.2 540.48 286.6L537.12 288.03L530.41 288.13C530.41 288.13 506 282.54 503.05 283.86C504.88 277.55 495.32 255.59 492.98 250.91C490.64 246.23 485.66 248.37 485.66 248.37L481.91 253.21C480.91 254.88 479.444 256.222 477.693 257.071C475.942 257.92 473.98 258.239 472.05 257.99C464.93 257.38 461.47 250.99 461.47 250.99L459.54 246.82L459.84 241.74C458.84 236.04 465.33 232.18 465.33 232.18C465.33 232.18 470.42 232.38 474.38 232.07C478.34 231.76 478.96 227.3 478.96 227.3C478.75 223.42 476.69 218.94 473.65 214.36C476.01 210.78 498.65 209.09 498.65 209.09L504.45 207.09L509.53 204.65L514.53 200.99C520.23 197.33 513.92 190.92 513.92 190.92C505.58 188.68 504.57 184.92 504.57 184.92L503.75 178.31L505.28 175.87L508.13 171.7L514.33 166.92L522.33 166.51L527.11 168.34C527.11 168.34 528.94 170.27 529.86 177.6C530.78 184.93 537.49 184 537.49 184L539.62 182.78L562 168.95C589.69 202.71 601.69 270.9 601.69 270.9Z" fill="white" stroke="black" stroke-miterlimit="10"/>
<path id="E15" d="M562.03 168.9L539.65 182.71L537.52 183.93C537.52 183.93 530.81 184.85 529.89 177.53C528.97 170.21 527.14 168.27 527.14 168.27L522.36 166.44L514.36 166.85L508.16 171.63L505.31 175.8L503.78 178.24L504.6 184.85C504.6 184.85 505.6 188.61 513.95 190.85C513.95 190.85 520.26 197.26 514.56 200.92L509.56 204.58L504.48 207.02L498.68 209.02C498.68 209.02 476 210.71 473.68 214.29C463.59 199.08 442.68 182.68 442.68 182.68C442.68 182.68 452.85 149.33 464.03 147.68C464.03 147.68 472.57 156.22 472.78 159.07L478.07 160.59L482.74 159.59L488.03 156.74L491.39 151.96L493.39 149.11L493.8 142.4L492.67 139.71L491.25 136.76L487.25 134.76L482.98 134.15L479.11 133.44L476.67 132.44L474.74 130.82L474.23 127.16L479.11 119.83L488.27 112.31L492.84 108.65L498.94 102.34C533.24 120.71 562.03 168.9 562.03 168.9Z" fill="white" stroke="black" stroke-miterlimit="10"/>
<path id="E16" d="M275.45 199.41C275.45 199.41 264.87 208.77 257.96 206.94C251.05 205.11 251.45 196.36 251.45 196.36C251.45 196.36 252.26 189.85 246.36 188.83C240.46 187.81 217.48 214.97 217.48 214.97C217.48 214.97 195.11 203.07 190.84 198.39C186.57 193.71 191.25 188.83 191.25 188.83C198.97 187.21 200.81 179.48 200.81 179.48C197.14 158.94 178.23 164.83 178.23 164.83C178.23 164.83 172.13 169.72 172.94 176.43C173.75 183.14 167.25 180.7 167.25 180.7C155.25 178.7 137.04 157.56 137.04 157.56C137.04 157.56 169.91 110.12 220.91 84.8L236.2 110.71C236.2 110.71 237.42 117.88 231.77 117.71C226.12 117.54 220.18 121.98 220.18 121.98L217.91 128.43C217.91 128.43 220.2 140.78 227.83 142.61L233.62 144.61L237.62 144.15C237.62 144.15 239.45 144.76 244.18 134.84C248.91 124.92 255.62 136.37 255.62 136.37C255.62 136.37 275.91 164.89 274.91 167.94C274.905 167.97 274.905 168 274.91 168.03C272.55 169.12 270.78 169.95 269.73 170.33C263.63 172.56 265.06 180.33 265.06 180.33C268.163 181.958 271.153 183.792 274.01 185.82C278.91 189.24 275.45 199.41 275.45 199.41Z" fill="white" stroke="black" stroke-miterlimit="10"/>
</g>
<g id="HeadPhone">
<path id="Vector" d="M654.56 474.8C654.56 474.8 583.22 498.85 564.56 483.99C564.56 483.99 647.78 395.35 614.27 234.31C614.27 234.31 568.89 35.46 326.78 36.52C326.78 36.52 143.04 46.24 86.78 227.83C86.78 227.83 32.78 361.83 131.1 486.14C131.1 486.14 121.1 495.07 50.19 480.88C50.19 480.88 -11.81 421.31 1.93999 266.46L48.94 225.14C48.94 225.14 79.81 61.39 284.09 5.46001C284.09 5.46001 469.74 -38.33 593.74 122.18C593.74 122.18 639.15 175.69 645.63 224.32L691.84 267.32C691.84 267.32 717.77 350.77 654.56 474.8Z" fill="#231F20"/>
</g>
</g>
<defs>
<clipPath id="clip0">
<rect width="697.11" height="570.48" fill="white"/>
</clipPath>
</defs>
</svg>
